<?xml version="1.0" standalone="no"?>
<!DOCTYPE svg PUBLIC "-//W3C//DTD SVG 20010904//EN"
 "http://www.w3.org/TR/2001/REC-SVG-20010904/DTD/svg10.dtd">
<svg version="1.0" xmlns="http://www.w3.org/2000/svg"
 width="32.000000pt" height="32.000000pt" viewBox="0 0 32.000000 32.000000"
 preserveAspectRatio="xMidYMid meet">

<g transform="translate(0.000000,32.000000) scale(0.100000,-0.100000)"
fill="#000000" stroke="none">
<path d="M126 274 c-9 -8 -16 -22 -16 -30 0 -8 -10 -14 -24 -14 -22 0 -23 -5
-30 -77 -11 -137 -23 -123 105 -123 l112 0 -7 77 c-3 42 -6 87 -6 100 0 18 -5
23 -25 23 -15 0 -25 6 -25 14 0 20 -28 46 -50 46 -10 0 -26 -7 -34 -16z m62
-26 c3 -14 -3 -18 -27 -18 -29 0 -41 17 -24 34 13 13 48 1 51 -16z m-78 -53
c0 -8 5 -15 10 -15 6 0 10 7 10 15 0 10 10 15 30 15 20 0 30 -5 30 -15 0 -8 5
-15 10 -15 6 0 10 7 10 15 0 8 7 15 15 15 8 0 15 -8 15 -19 0 -10 3 -46 6 -80
l7 -61 -92 0 c-103 0 -96 -9 -85 99 5 41 11 61 20 61 8 0 14 -7 14 -15z"/>
</g>
</svg>
