<?xml version="1.0" standalone="no"?>
<!DOCTYPE svg PUBLIC "-//W3C//DTD SVG 20010904//EN"
 "http://www.w3.org/TR/2001/REC-SVG-20010904/DTD/svg10.dtd">
<svg version="1.0" xmlns="http://www.w3.org/2000/svg"
 width="48.000000pt" height="48.000000pt" viewBox="0 0 48.000000 48.000000"
 preserveAspectRatio="xMidYMid meet">

<g transform="translate(0.000000,48.000000) scale(0.100000,-0.100000)"
fill="#000000" stroke="none">
<path d="M161 419 c-26 -26 -31 -38 -31 -79 0 -41 5 -53 31 -79 44 -45 114
-45 158 0 45 44 45 114 0 158 -26 26 -38 31 -79 31 -41 0 -53 -5 -79 -31z
m136 -21 c51 -48 15 -138 -56 -138 -47 0 -81 32 -81 79 0 72 84 109 137 59z"/>
<path d="M108 193 c-61 -38 -78 -135 -28 -160 34 -17 286 -17 320 0 50 25 32
124 -30 160 -40 24 -223 24 -262 0z m263 -42 c33 -33 40 -85 13 -95 -20 -8
-268 -8 -288 0 -27 10 -20 62 13 95 29 28 32 29 131 29 99 0 102 -1 131 -29z"/>
</g>
</svg>
